<?xml version="1.0" standalone="no"?>
<!DOCTYPE svg PUBLIC "-//W3C//DTD SVG 20010904//EN"
 "http://www.w3.org/TR/2001/REC-SVG-20010904/DTD/svg10.dtd">
<svg version="1.0" xmlns="http://www.w3.org/2000/svg"
 width="516.000000pt" height="516.000000pt" viewBox="0 0 516.000000 516.000000"
 preserveAspectRatio="xMidYMid meet">

<g transform="translate(0.000000,516.000000) scale(0.100000,-0.100000)"
fill="#000000" stroke="none">
<path d="M0 2580 l0 -2580 2580 0 2580 0 0 2580 0 2580 -2580 0 -2580 0 0
-2580z m3025 2304 c440 -86 807 -279 1128 -593 359 -350 575 -769 668 -1291
19 -107 23 -161 23 -375 0 -277 -14 -395 -75 -621 -171 -643 -609 -1177 -1199
-1466 -183 -90 -331 -139 -545 -181 -234 -46 -361 -52 -597 -31 -221 19 -366
52 -578 129 -545 197 -982 599 -1244 1140 -99 205 -165 417 -207 670 -31 187
-31 523 0 715 107 662 467 1229 1005 1581 160 105 262 157 451 227 383 142
771 174 1170 96z"/>
<path d="M2223 4049 c-23 -7 -33 -16 -33 -29 0 -22 -51 -53 -74 -44 -21 8
-148 -79 -202 -139 -94 -104 -174 -236 -578 -944 -22 -40 -44 -72 -48 -73 -5
0 -8 22 -8 49 0 90 -16 101 -69 49 -66 -64 -157 -228 -200 -359 -23 -71 -66
-299 -82 -439 -6 -47 -17 -132 -26 -190 -9 -58 -17 -183 -19 -279 -2 -159 -1
-175 17 -194 74 -80 153 -76 198 11 27 52 87 47 171 -13 25 -18 64 -42 87 -54
51 -26 68 -49 93 -128 27 -87 51 -130 118 -214 195 -244 439 -393 755 -464 94
-22 346 -30 472 -16 489 53 945 364 1082 738 30 82 65 247 57 268 -3 8 12 71
35 139 35 106 41 137 41 208 0 98 -20 175 -52 205 -27 24 -62 37 -187 69 -52
13 -102 31 -112 40 -22 20 -36 61 -44 134 l-7 56 116 15 c97 13 121 20 152 44
32 25 64 76 64 105 0 6 -80 10 -234 10 l-234 0 -42 50 c-67 80 -75 81 -101 10
l-22 -60 -47 0 -47 0 54 158 c31 86 86 247 123 357 l68 200 -132 5 c-72 3
-152 3 -177 1 l-46 -3 -93 -272 c-122 -355 -115 -338 -148 -334 -23 3 -28 9
-34 43 -4 22 -8 85 -8 140 -1 55 -5 125 -9 155 l-6 55 -23 -64 c-17 -49 -22
-90 -23 -165 -2 -149 -5 -159 -57 -170 -39 -9 -44 -14 -60 -58 l-17 -48 -48 0
c-35 0 -48 4 -44 13 2 6 66 190 141 407 75 217 141 405 147 418 11 28 4 42
-21 42 -15 0 -20 10 -25 48 -19 138 -32 168 -94 232 -46 47 -75 66 -133 89
-40 17 -87 37 -103 45 -17 9 -37 16 -47 16 -19 0 -58 62 -58 94 0 44 -42 57
-117 35z m-872 -1579 c26 -17 49 -37 52 -44 3 -7 -24 -42 -59 -79 l-64 -68 0
88 c0 85 7 133 18 133 3 0 27 -14 53 -30z m709 -41 c-93 -27 -218 -92 -266
-138 -22 -22 -54 -64 -70 -95 l-29 -56 -47 0 c-29 0 -48 4 -48 11 0 27 63 119
108 157 113 95 228 139 367 140 l50 0 -65 -19z m520 16 c0 -2 -17 -33 -38 -67
-21 -35 -70 -120 -110 -189 -61 -108 -81 -133 -133 -174 -34 -27 -98 -79 -141
-116 -87 -73 -70 -67 -361 -128 -51 -10 -75 -19 -68 -26 14 -15 51 -116 51
-141 0 -31 -65 -84 -103 -84 -29 0 -117 83 -171 162 -31 45 -55 83 -53 84 1 1
35 -1 76 -6 41 -4 84 -5 95 0 12 4 93 22 180 41 l159 33 108 82 c195 148 180
131 296 341 l108 193 53 0 c28 0 52 -2 52 -5z m660 -14 c0 -7 -160 -482 -164
-487 -1 -1 -23 -5 -49 -8 -48 -7 -49 -7 -42 16 4 13 44 128 88 256 l81 232 43
0 c24 0 43 -4 43 -9z m-1543 -428 c3 -10 17 -30 31 -45 l24 -27 -36 -6 c-47
-9 -84 1 -107 28 -31 38 -24 55 24 60 23 2 46 4 50 5 4 1 10 -6 14 -15z"/>
<path d="M4700 3040 c-2 -56 -4 -60 -10 -30 -5 22 -8 -23 -9 -115 0 -90 3
-144 8 -136 7 11 10 10 14 -5 2 -10 5 8 6 40 0 33 4 57 7 54 6 -7 33 -167 44
-263 4 -38 12 -81 18 -95 9 -21 11 -15 13 45 5 105 -1 250 -12 340 -12 87 -47
207 -60 200 -4 -3 -10 3 -12 12 -3 10 -6 -11 -7 -47z"/>
<path d="M4671 3064 c0 -11 3 -14 6 -6 3 7 2 16 -1 19 -3 4 -6 -2 -5 -13z"/>
</g>
</svg>
